<svg xmlns="http://www.w3.org/2000/svg" width="400" height="400" fill-rule="evenodd" xmlns:v="https://vecta.io/nano"><path d="M181.6 3.125c0 2.968-.062 3.185-1.23 4.3-5.55 5.304-7.286 15.499-5.374 31.575l.571 4.8-1.424 1.459c-2.245 2.299-4.674 3.335-11.54 4.924-3.519.814-6.669 1.682-7 1.927-1.789 1.325-3.84 3.541-5.083 5.49-.772 1.21-3.42 4.18-5.884 6.6l-4.48 4.4-1.925 5.2-2.897 7.86c-.535 1.463-1.671 3.623-2.524 4.8-2.766 3.816-5.041 7.265-7.216 10.94-3.201 5.41-5.738 8.62-8.769 11.096-7.585 6.196-13.715 17.195-16.39 29.409l-1.239 5.653.62 6.121c.404 3.984 1.18 8.385 2.224 12.605l1.603 6.484-1.186 2.716c-.653 1.494-1.822 4.548-2.598 6.786-1.722 4.966-2.782 6.717-6.253 10.33-3.432 3.572-4.052 4.837-5.593 11.409-1.859 7.925-2.555 9.13-6.967 12.057-6.028 4-6.33 4.969-7.643 24.534-1.57 23.4-2.911 29.896-7.207 34.907A75.76 75.76 0 0 0 61.323 278c-2.708 4.144-3.341 4.865-6.045 6.878-2.895 2.155-5.231 5.47-7.285 10.338-1.09 2.583-2.645 5.323-4.223 7.439-2.999 4.023-4.459 7.39-6.351 14.646-2.026 7.766-3.34 10.673-7.195 15.909-2.131 2.895-3.379 5.98-5.442 13.457-1.938 7.02-3.937 12.353-5.749 15.333-3.111 5.118-3.379 5.949-4.08 12.674-.556 5.344-.961 7.284-2.606 12.502-1.678 5.322-1.947 6.636-1.947 9.5V400h18 18l.015-2.9c.04-7.821 1.651-16.071 4.393-22.5l2.56-6 4.034-4c3.197-3.17 4.404-4.701 5.816-7.379 1.108-2.102 2.52-4.068 3.733-5.2 5.107-4.767 6.123-5.963 7.828-9.222 1.406-2.687 2.55-4.153 5.464-6.999 2.397-2.342 4.309-4.658 5.471-6.626 3.623-6.141 6.444-10.141 8.694-12.329 3.182-3.093 4.93-5.538 7.208-10.077 1.383-2.757 2.759-4.756 4.747-6.9 3.527-3.804 4.314-5.406 6.419-13.068 1.867-6.796 3.633-10.94 5.711-13.4 3.219-3.811 4.283-6.178 6.732-14.971 3.259-11.698 6.736-16.405 15.685-21.232l2.97-1.602 2.05 2.168c1.418 1.5 2.757 3.616 4.345 6.868 1.922 3.938 2.793 5.218 5.367 7.886 2.67 2.77 3.535 4.072 6.615 9.96 3.511 6.714 3.579 6.809 7.599 10.542 2.231 2.071 4.699 4.734 5.484 5.917l1.427 2.15-.952 6.557c-1.269 8.747-2.602 12.205-6.63 17.205-4.537 5.632-6.013 9.816-7.196 20.394-1.698 15.179-2.987 20.683-7.346 31.358-2.311 5.661-3.102 8.782-4.628 18.257-.686 4.259-1.78 10.462-2.431 13.785s-1.184 7.238-1.184 8.7V400h31.4 31.4v-3.24c0-5.087-.985-5.799-11.223-8.111-6.891-1.557-11.177-4.749-11.177-8.327 0-8.898 1.635-13.703 6.099-17.922 3.271-3.091 4.793-5.423 5.485-8.404 2.489-10.713 4.293-15.589 7.16-19.346 2.864-3.752 4.418-7.584 6.825-16.826 1.874-7.197 3.255-10.472 5.976-14.168 9.43-12.814 9.3-39.206-.247-49.748-2.663-2.94-3.905-5.132-5.744-10.134-2.315-6.297-3.882-9.074-7.434-13.174-1.84-2.124-4.361-6.959-5.527-10.6-1.221-3.81-3.239-7.349-5.81-10.186-4.342-4.791-6.889-11.893-6.82-19.014.092-9.516.662-11.566 4.101-14.752 6.844-6.341 6.383-5.688 8.503-12.048 2.409-7.226 3.559-9.513 6.433-12.8 3.612-4.131 4.523-6.308 5.235-12.518.941-8.209 1.664-9.583 6.344-12.057l1.465-.775 2.499 1.232c1.375.678 3.48 2.117 4.678 3.198 3.156 2.847 4.546 3.72 5.92 3.72 1.271 0 10.049-1.062 11.485-1.39.484-.11 2.661-2.638 5.254-6.099 2.435-3.251 5.126-6.697 5.98-7.657l1.552-1.745 6.241.644 6.24.645 5.954-3.233c6.752-3.667 6.886-3.767 8.601-6.439 1.51-2.353 1.472-2.969-.631-10.269l-1.423-4.943.955-2.657c.525-1.461 1.358-4.277 1.85-6.257 1.064-4.282 2.161-6.292 4.757-8.72 3.988-3.73 1.813-3.48 30.227-3.48h25.015l1.551-1.402c.853-.77 2.117-2.585 2.808-4.031 1.498-3.137 4.021-6.927 6.142-9.228l1.54-1.671-2.548-1.818c-1.402-1-4.116-2.571-6.033-3.49l-3.484-1.672-5.687.662c-9.089 1.058-81.768.965-89.386-.114-5.821-.825-8.257-1.921-10.339-4.651l-.994-1.303 1.641-4.91c.903-2.7 1.912-5.433 2.244-6.074.575-1.113.533-1.298-.975-4.231-.868-1.687-2.149-4.804-2.847-6.927-1.595-4.847-3.482-7.589-6.831-9.925-4.993-3.483-5.6-4.379-5.6-8.263V0h-21.8-21.8v3.125" fill="#fbf9f5"/><path d="M0 200v200h5.2 5.2v-3.324c0-2.864.269-4.178 1.947-9.5 1.645-5.218 2.05-7.158 2.606-12.502.701-6.725.969-7.556 4.08-12.674 1.812-2.98 3.811-8.313 5.749-15.333 2.063-7.477 3.311-10.562 5.442-13.457 3.855-5.236 5.169-8.143 7.195-15.909 1.892-7.256 3.352-10.623 6.351-14.646 1.578-2.116 3.133-4.856 4.223-7.439 2.054-4.868 4.39-8.183 7.285-10.338 2.704-2.013 3.337-2.734 6.045-6.878a75.76 75.76 0 0 1 4.873-6.493c4.296-5.011 5.637-11.507 7.207-34.907 1.313-19.565 1.615-20.534 7.643-24.534 4.412-2.927 5.108-4.132 6.967-12.057 1.541-6.572 2.161-7.837 5.593-11.409 3.471-3.613 4.531-5.364 6.253-10.33.776-2.238 1.945-5.292 2.598-6.786l1.186-2.716-1.603-6.484c-1.044-4.22-1.82-8.621-2.224-12.605l-.62-6.121 1.239-5.653c2.675-12.214 8.805-23.213 16.39-29.409 3.031-2.476 5.568-5.686 8.769-11.096 2.175-3.675 4.45-7.124 7.216-10.94.853-1.177 1.989-3.337 2.524-4.8l2.897-7.86 1.925-5.2 4.48-4.4c2.464-2.42 5.112-5.39 5.884-6.6 1.243-1.949 3.294-4.165 5.083-5.49.331-.245 3.481-1.113 7-1.927 6.866-1.589 9.295-2.625 11.54-4.924l1.424-1.459-.571-4.8c-1.912-16.076-.176-26.271 5.374-31.575 1.168-1.115 1.23-1.332 1.23-4.3V0H90.8 0v200m140.856 37.223c-8.926 4.844-12.377 9.525-15.631 21.206-2.449 8.793-3.513 11.16-6.732 14.971-2.078 2.46-3.844 6.604-5.711 13.4-2.105 7.662-2.892 9.264-6.419 13.068-1.988 2.144-3.364 4.143-4.747 6.9-2.278 4.539-4.026 6.984-7.208 10.077-2.25 2.188-5.071 6.188-8.694 12.329-1.162 1.968-3.074 4.284-5.471 6.626-2.914 2.846-4.058 4.312-5.464 6.999-1.705 3.259-2.721 4.455-7.828 9.222-1.213 1.132-2.625 3.098-3.733 5.2-1.412 2.678-2.619 4.209-5.816 7.379l-4.034 4-2.56 6c-2.742 6.429-4.353 14.679-4.393 22.5L46.4 400h50 50v-2.658c0-1.462.533-5.377 1.184-8.7s1.745-9.526 2.431-13.785c1.526-9.475 2.317-12.596 4.628-18.257 4.359-10.675 5.648-16.179 7.346-31.358 1.183-10.578 2.659-14.762 7.196-20.394 4.028-5 5.361-8.458 6.63-17.205l.952-6.557-1.427-2.15c-.785-1.183-3.253-3.846-5.484-5.917-4.02-3.733-4.088-3.828-7.599-10.542-3.072-5.873-3.95-7.196-6.6-9.948-2.56-2.658-3.459-3.983-5.532-8.152-1.787-3.592-3.011-5.502-4.401-6.864l-1.925-1.887-2.943 1.597" fill="#fcac1c"/><path d="M225.2 3.352c0 3.884.607 4.78 5.6 8.263 3.349 2.336 5.236 5.078 6.831 9.925.698 2.123 1.979 5.24 2.847 6.927 1.508 2.933 1.55 3.118.975 4.231-.332.641-1.341 3.374-2.244 6.074l-1.641 4.91.994 1.303c2.082 2.73 4.518 3.826 10.339 4.651 7.618 1.079 80.297 1.172 89.386.114l5.687-.662 3.484 1.672c1.917.919 4.631 2.49 6.033 3.49l2.548 1.818-1.54 1.671c-2.121 2.301-4.644 6.091-6.142 9.228-.691 1.446-1.955 3.261-2.808 4.031l-1.551 1.402h-25.015c-28.414 0-26.239-.25-30.227 3.48-2.596 2.428-3.693 4.438-4.757 8.72-.492 1.98-1.325 4.796-1.85 6.257l-.955 2.657 1.423 4.943c2.103 7.3 2.141 7.916.631 10.269-1.715 2.672-1.849 2.772-8.601 6.439l-5.954 3.233-6.24-.645-6.241-.644-1.552 1.745c-.854.96-3.545 4.406-5.98 7.657-2.593 3.461-4.77 5.989-5.254 6.099-1.436.328-10.214 1.39-11.485 1.39-1.374 0-2.764-.873-5.92-3.72-1.198-1.081-3.303-2.52-4.678-3.198l-2.499-1.232-1.465.775c-4.68 2.474-5.403 3.848-6.344 12.057-.712 6.21-1.623 8.387-5.235 12.518-2.874 3.287-4.024 5.574-6.433 12.8-2.12 6.36-1.659 5.707-8.503 12.048-6.849 6.346-5.359 24.852 2.719 33.766 2.571 2.837 4.589 6.376 5.81 10.186 1.166 3.641 3.687 8.476 5.527 10.6 3.552 4.1 5.119 6.877 7.434 13.174 1.839 5.002 3.081 7.194 5.744 10.134 9.547 10.542 9.677 36.934.247 49.748-2.721 3.696-4.102 6.971-5.976 14.168-2.407 9.242-3.961 13.074-6.825 16.826-2.867 3.757-4.671 8.633-7.16 19.346-.692 2.981-2.214 5.313-5.485 8.404-4.464 4.219-6.099 9.024-6.099 17.922 0 3.578 4.286 6.77 11.177 8.327 10.238 2.312 11.223 3.024 11.223 8.111V400h95.4H400V200 0h-87.4-87.4v3.352" fill="#41508e"/></svg>