<svg width="2169" height="896" viewBox="0 0 2169 896" fill="none" xmlns="http://www.w3.org/2000/svg">
<g clip-path="url(#clip0_1509_51)">
<rect width="2169" height="896" fill="#D9D9D9"/>
<g opacity="0.5">
<path d="M2167 899.498L1245 899.5L1629.5 -4.69898e-05L2167 -0.00170898L2167 899.498Z" fill="#F2F2F2"/>
<path d="M1386.8 395H1388.68L1174.89 896H1173.01L1386.8 395Z" fill="#BDBDBD"/>
<path d="M1380.39 395H1382.27L1168.49 896H1166.6L1380.39 395Z" fill="#BDBDBD"/>
<path d="M1373.98 395H1375.87L1162.08 896H1160.19L1373.98 395Z" fill="#BDBDBD"/>
<path d="M1367.58 395H1369.46L1155.67 896H1153.79L1367.58 395Z" fill="#BDBDBD"/>
<path d="M1361.17 395H1363.05L1149.26 896H1147.38L1361.17 395Z" fill="#BDBDBD"/>
<path d="M1354.76 395H1356.65L1142.86 896H1140.97L1354.76 395Z" fill="#BDBDBD"/>
<path d="M1348.35 395H1350.24L1136.45 896H1134.57L1348.35 395Z" fill="#BDBDBD"/>
<path d="M1341.95 395H1343.83L1130.04 896H1128.16L1341.95 395Z" fill="#BDBDBD"/>
<path d="M1335.54 395H1337.42L1123.64 896H1121.75L1335.54 395Z" fill="#BDBDBD"/>
<path d="M1329.13 395H1331.02L1117.23 896H1115.34L1329.13 395Z" fill="#BDBDBD"/>
<path d="M1322.73 395H1324.61L1110.82 896H1108.94L1322.73 395Z" fill="#BDBDBD"/>
<path d="M1316.32 395H1318.2L1104.41 896H1102.53L1316.32 395Z" fill="#BDBDBD"/>
<path d="M1309.91 395H1311.8L1098.01 896H1096.12L1309.91 395Z" fill="#BDBDBD"/>
<path d="M1303.5 395H1305.39L1091.6 896H1089.72L1303.5 395Z" fill="#BDBDBD"/>
<path d="M1297.1 395H1298.98L1085.19 896H1083.31L1297.1 395Z" fill="#BDBDBD"/>
<path d="M1290.69 395H1292.58L1078.79 896H1076.9L1290.69 395Z" fill="#BDBDBD"/>
<path d="M1284.28 395H1286.17L1072.38 896H1070.5L1284.28 395Z" fill="#BDBDBD"/>
<path d="M1277.88 395H1279.76L1065.97 896H1064.09L1277.88 395Z" fill="#BDBDBD"/>
<path d="M1271.47 395H1273.35L1059.57 896H1057.68L1271.47 395Z" fill="#BDBDBD"/>
<path d="M1265.06 395H1266.95L1053.16 896H1051.27L1265.06 395Z" fill="#BDBDBD"/>
<path d="M1258.66 395H1260.54L1046.75 896H1044.87L1258.66 395Z" fill="#BDBDBD"/>
<path d="M1252.25 395H1254.13L1040.34 896H1038.46L1252.25 395Z" fill="#BDBDBD"/>
<path d="M1245.84 395H1247.73L1033.94 896H1032.05L1245.84 395Z" fill="#BDBDBD"/>
<path d="M1239.43 395H1241.32L1027.53 896H1025.65L1239.43 395Z" fill="#BDBDBD"/>
<path d="M1233.03 395H1234.91L1021.12 896H1019.24L1233.03 395Z" fill="#BDBDBD"/>
<path d="M1226.62 395H1228.5L1014.72 896H1012.83L1226.62 395Z" fill="#BDBDBD"/>
<path d="M1220.21 395H1222.1L1008.31 896H1006.42L1220.21 395Z" fill="#BDBDBD"/>
<path d="M1213.81 395H1215.69L1001.9 896H1000.02L1213.81 395Z" fill="#BDBDBD"/>
<path d="M1207.4 395H1209.28L995.495 896H993.611L1207.4 395Z" fill="#BDBDBD"/>
<path d="M1200.99 395H1202.88L989.088 896H987.204L1200.99 395Z" fill="#BDBDBD"/>
<path d="M1600.8 -106H1602.68L1388.89 395H1387.01L1600.8 -106Z" fill="#BDBDBD"/>
<path d="M1594.39 -106H1596.27L1382.49 395H1380.6L1594.39 -106Z" fill="#BDBDBD"/>
<path d="M1587.98 -106H1589.87L1376.08 395H1374.19L1587.98 -106Z" fill="#BDBDBD"/>
<path d="M1581.58 -106H1583.46L1369.67 395H1367.79L1581.58 -106Z" fill="#BDBDBD"/>
<path d="M1575.17 -106H1577.05L1363.26 395H1361.38L1575.17 -106Z" fill="#BDBDBD"/>
<path d="M1568.76 -106H1570.65L1356.86 395H1354.97L1568.76 -106Z" fill="#BDBDBD"/>
<path d="M1562.35 -106H1564.24L1350.45 395H1348.57L1562.35 -106Z" fill="#BDBDBD"/>
<path d="M1555.95 -106H1557.83L1344.04 395H1342.16L1555.95 -106Z" fill="#BDBDBD"/>
<path d="M1549.54 -106H1551.42L1337.64 395H1335.75L1549.54 -106Z" fill="#BDBDBD"/>
<path d="M1543.13 -106H1545.02L1331.23 395H1329.34L1543.13 -106Z" fill="#BDBDBD"/>
<path d="M1536.73 -106H1538.61L1324.82 395H1322.94L1536.73 -106Z" fill="#BDBDBD"/>
<path d="M1530.32 -106H1532.2L1318.41 395H1316.53L1530.32 -106Z" fill="#BDBDBD"/>
<path d="M1523.91 -106H1525.8L1312.01 395H1310.12L1523.91 -106Z" fill="#BDBDBD"/>
<path d="M1517.5 -106H1519.39L1305.6 395H1303.72L1517.5 -106Z" fill="#BDBDBD"/>
<path d="M1511.1 -106H1512.98L1299.19 395H1297.31L1511.1 -106Z" fill="#BDBDBD"/>
<path d="M1504.69 -106H1506.58L1292.79 395H1290.9L1504.69 -106Z" fill="#BDBDBD"/>
<path d="M1498.28 -106H1500.17L1286.38 395H1284.5L1498.28 -106Z" fill="#BDBDBD"/>
<path d="M1491.88 -106H1493.76L1279.97 395H1278.09L1491.88 -106Z" fill="#BDBDBD"/>
<path d="M1485.47 -106H1487.35L1273.57 395H1271.68L1485.47 -106Z" fill="#BDBDBD"/>
<path d="M1479.06 -106H1480.95L1267.16 395H1265.27L1479.06 -106Z" fill="#BDBDBD"/>
<path d="M1472.66 -106H1474.54L1260.75 395H1258.87L1472.66 -106Z" fill="#BDBDBD"/>
<path d="M1466.25 -106H1468.13L1254.34 395H1252.46L1466.25 -106Z" fill="#BDBDBD"/>
<path d="M1459.84 -106H1461.73L1247.94 395H1246.05L1459.84 -106Z" fill="#BDBDBD"/>
<path d="M1453.43 -106H1455.32L1241.53 395H1239.65L1453.43 -106Z" fill="#BDBDBD"/>
<path d="M1447.03 -106H1448.91L1235.12 395H1233.24L1447.03 -106Z" fill="#BDBDBD"/>
<path d="M1440.62 -106H1442.5L1228.72 395H1226.83L1440.62 -106Z" fill="#BDBDBD"/>
<path d="M1434.21 -106H1436.1L1222.31 395H1220.42L1434.21 -106Z" fill="#BDBDBD"/>
<path d="M1427.81 -106H1429.69L1215.9 395H1214.02L1427.81 -106Z" fill="#BDBDBD"/>
<path d="M1421.4 -106H1423.28L1209.5 395H1207.61L1421.4 -106Z" fill="#BDBDBD"/>
<path d="M1414.99 -106H1416.88L1203.09 395H1201.2L1414.99 -106Z" fill="#BDBDBD"/>
<path opacity="0.6" fill-rule="evenodd" clip-rule="evenodd" d="M205.892 583.169H204.191L559.114 -249H560.816L205.892 583.169ZM211.677 583.169H209.976L564.899 -249H566.601L211.677 583.169ZM217.462 583.169H215.761L570.684 -249H572.385L217.462 583.169ZM223.247 583.169H221.546L576.469 -249H578.17L223.247 583.169ZM229.032 583.169H227.33L582.254 -249H583.955L229.032 583.169ZM234.817 583.169H233.115L588.039 -249H589.74L234.817 583.169ZM240.602 583.169H238.9L593.823 -249H595.525L240.602 583.169ZM246.386 583.169H244.685L599.608 -249H601.31L246.386 583.169ZM252.171 583.169H250.47L605.393 -249H607.095L252.171 583.169ZM257.956 583.169H256.255L611.178 -249H612.879L257.956 583.169ZM263.741 583.169H262.04L616.963 -249H618.664L263.741 583.169ZM269.526 583.169H267.824L622.748 -249H624.449L269.526 583.169ZM275.311 583.169H273.609L628.533 -249H630.234L275.311 583.169ZM281.096 583.169H279.394L634.317 -249H636.019L281.096 583.169ZM286.88 583.169H285.179L640.102 -249H641.804L286.88 583.169ZM292.665 583.169H290.964L645.887 -249H647.589L292.665 583.169ZM298.45 583.169H296.749L651.672 -249H653.373L298.45 583.169ZM304.235 583.169H302.534L657.457 -249H659.158L304.235 583.169ZM310.02 583.169H308.318L663.242 -249H664.943L310.02 583.169ZM315.805 583.169H314.103L669.027 -249H670.728L315.805 583.169ZM321.59 583.169H319.888L674.811 -249H676.513L321.59 583.169ZM327.374 583.169H325.673L680.596 -249H682.298L327.374 583.169ZM333.159 583.169H331.458L686.381 -249H688.083L333.159 583.169ZM338.944 583.169H337.243L692.166 -249H693.867L338.944 583.169ZM344.729 583.169H343.028L697.951 -249H699.652L344.729 583.169ZM350.514 583.169H348.812L703.736 -249H705.437L350.514 583.169ZM356.299 583.169H354.597L709.521 -249H711.222L356.299 583.169ZM362.084 583.169H360.382L715.305 -249H717.007L362.084 583.169ZM367.868 583.169H366.167L721.09 -249H722.792L367.868 583.169ZM373.653 583.169H371.952L726.875 -249H728.577L373.653 583.169ZM379.438 583.169H377.737L732.66 -249H734.361L379.438 583.169ZM385.223 583.169H383.522L738.445 -249H740.146L385.223 583.169ZM391.008 583.169H389.307L744.23 -249H745.931L391.008 583.169ZM396.793 583.169H395.091L750.015 -249H751.716L396.793 583.169ZM402.578 583.169H400.876L755.799 -249H757.501L402.578 583.169ZM408.363 583.169H406.661L761.584 -249H763.286L408.363 583.169ZM414.147 583.169H412.446L767.369 -249H769.071L414.147 583.169ZM419.932 583.169H418.231L773.154 -249H774.855L419.932 583.169ZM425.717 583.169H424.016L778.939 -249H780.64L425.717 583.169ZM431.502 583.169H429.801L784.724 -249H786.425L431.502 583.169ZM437.287 583.169H435.585L790.509 -249H792.21L437.287 583.169ZM443.072 583.169H441.37L796.293 -249H797.995L443.072 583.169ZM448.857 583.169H447.155L802.078 -249H803.78L448.857 583.169Z" fill="#BEBEBE"/>
<g opacity="0.6">
<path d="M1051.9 -561H1048.55L288.907 1220.1H292.255L1051.9 -561Z" fill="#BEBEBE"/>
<path d="M1063.28 -561H1059.94L300.29 1220.1H303.638L1063.28 -561Z" fill="#BEBEBE"/>
<path d="M1074.67 -561H1071.32L311.673 1220.1H315.021L1074.67 -561Z" fill="#BEBEBE"/>
<path d="M1086.05 -561H1082.7L323.056 1220.1H326.404L1086.05 -561Z" fill="#BEBEBE"/>
<path d="M1097.43 -561H1094.08L334.439 1220.1H337.787L1097.43 -561Z" fill="#BEBEBE"/>
<path d="M1108.82 -561H1105.47L345.822 1220.1H349.17L1108.82 -561Z" fill="#BEBEBE"/>
<path d="M1120.2 -561H1116.85L357.205 1220.1H360.553L1120.2 -561Z" fill="#BEBEBE"/>
</g>
<g opacity="0.6">
<path d="M1130.61 -561H1127.26L367.615 1220.1H370.963L1130.61 -561Z" fill="#BEBEBE"/>
<path d="M1141.99 -561H1138.64L378.998 1220.1H382.346L1141.99 -561Z" fill="#BEBEBE"/>
<path d="M1153.37 -561H1150.03L390.381 1220.1H393.729L1153.37 -561Z" fill="#BEBEBE"/>
<path d="M1164.76 -561H1161.41L401.764 1220.1H405.112L1164.76 -561Z" fill="#BEBEBE"/>
<path d="M1176.14 -561H1172.79L413.147 1220.1H416.495L1176.14 -561Z" fill="#BEBEBE"/>
<path d="M1187.52 -561H1184.18L424.53 1220.1H427.878L1187.52 -561Z" fill="#BEBEBE"/>
<path d="M1198.91 -561H1195.56L435.913 1220.1H439.261L1198.91 -561Z" fill="#BEBEBE"/>
</g>
<path d="M301.961 -9H231.054L-155 896.16H-84.093L301.961 -9Z" fill="#E0E0E0"/>
<path d="M294.907 -9H301.961L-84.093 896.16H-91.1471L294.907 -9Z" fill="#E0E0E0"/>
<path d="M232.756 -9H231.054L-155 896.16H-153.299L232.756 -9Z" fill="#F2F2F2"/>
<path d="M238.541 -9H236.839L-149.215 896.16H-147.514L238.541 -9Z" fill="#F2F2F2"/>
<path d="M244.325 -9H242.624L-143.43 896.16H-141.729L244.325 -9Z" fill="#F2F2F2"/>
<path d="M250.11 -9H248.409L-137.645 896.16H-135.944L250.11 -9Z" fill="#F2F2F2"/>
<path d="M255.895 -9H254.194L-131.861 896.16H-130.159L255.895 -9Z" fill="#F2F2F2"/>
<path d="M261.68 -9H259.979L-126.076 896.16H-124.374L261.68 -9Z" fill="#F2F2F2"/>
<path d="M267.465 -9H265.763L-120.291 896.16H-118.589L267.465 -9Z" fill="#F2F2F2"/>
<path d="M2350.61 0L1742.55 0L1356.5 905.16H1964.55L2350.61 0Z" fill="#D9D9D9"/>
<path d="M1725.55 0L1691.05 0L1305 905.16H1339.5L1725.55 0Z" fill="#D9D9D9"/>
<path d="M2432.28 -5H2430.58L2044.53 900.16H2046.23L2432.28 -5Z" fill="#BDBDBD"/>
<path d="M2438.07 -5H2436.37L2050.31 900.16H2052.01L2438.07 -5Z" fill="#BDBDBD"/>
<path d="M2443.85 -5H2442.15L2056.1 900.16H2057.8L2443.85 -5Z" fill="#BDBDBD"/>
<path d="M2449.64 -5H2447.93L2061.88 900.16H2063.58L2449.64 -5Z" fill="#BDBDBD"/>
<path d="M2455.42 -5H2453.72L2067.67 900.16H2069.37L2455.42 -5Z" fill="#BDBDBD"/>
<path d="M2461.21 -5H2459.5L2073.45 900.16H2075.15L2461.21 -5Z" fill="#BDBDBD"/>
<path d="M2466.99 -5H2465.29L2079.24 900.16H2080.94L2466.99 -5Z" fill="#BDBDBD"/>
<path d="M2472.78 -5H2471.07L2085.02 900.16H2086.72L2472.78 -5Z" fill="#BDBDBD"/>
<path d="M2478.56 -5H2476.86L2090.8 900.16H2092.51L2478.56 -5Z" fill="#BDBDBD"/>
<path d="M2484.35 -5H2482.64L2096.59 900.16H2098.29L2484.35 -5Z" fill="#BDBDBD"/>
<path d="M2490.13 -5H2488.43L2102.37 900.16H2104.08L2490.13 -5Z" fill="#BDBDBD"/>
<path d="M2495.92 -5H2494.21L2108.16 900.16H2109.86L2495.92 -5Z" fill="#BDBDBD"/>
<path d="M2501.7 -5H2500L2113.94 900.16H2115.65L2501.7 -5Z" fill="#BDBDBD"/>
<path d="M2368.65 -5H2366.95L1980.89 900.16H1982.59L2368.65 -5Z" fill="#BDBDBD"/>
<path d="M2374.43 -5H2372.73L1986.68 900.16H1988.38L2374.43 -5Z" fill="#BDBDBD"/>
<path d="M2380.22 -5H2378.52L1992.46 900.16H1994.16L2380.22 -5Z" fill="#BDBDBD"/>
<path d="M2386 -5H2384.3L1998.25 900.16H1999.95L2386 -5Z" fill="#BDBDBD"/>
<path d="M2391.79 -5H2390.09L2004.03 900.16H2005.73L2391.79 -5Z" fill="#BDBDBD"/>
<path d="M2397.57 -5H2395.87L2009.82 900.16H2011.52L2397.57 -5Z" fill="#BDBDBD"/>
<path d="M2403.36 -5H2401.66L2015.6 900.16H2017.3L2403.36 -5Z" fill="#BDBDBD"/>
<path d="M2409.14 -5H2407.44L2021.39 900.16H2023.09L2409.14 -5Z" fill="#BDBDBD"/>
<path d="M2414.93 -5H2413.23L2027.17 900.16H2028.87L2414.93 -5Z" fill="#BDBDBD"/>
<path d="M2420.71 -5H2419.01L2032.96 900.16H2034.66L2420.71 -5Z" fill="#BDBDBD"/>
<path d="M2426.5 -5H2424.8L2038.74 900.16H2040.44L2426.5 -5Z" fill="#BDBDBD"/>
<path d="M2432.28 -5H2430.58L2044.53 900.16H2046.23L2432.28 -5Z" fill="#BDBDBD"/>
<path d="M2438.07 -5H2436.37L2050.31 900.16H2052.01L2438.07 -5Z" fill="#BDBDBD"/>
<path d="M2571.12 -5H2569.42L2183.36 900.16H2185.06L2571.12 -5Z" fill="#BDBDBD"/>
<path d="M2576.9 -5H2575.2L2189.15 900.16H2190.85L2576.9 -5Z" fill="#BDBDBD"/>
<path d="M2582.69 -5H2580.99L2194.93 900.16H2196.63L2582.69 -5Z" fill="#BDBDBD"/>
<path d="M2588.47 -5H2586.77L2200.72 900.16H2202.42L2588.47 -5Z" fill="#BDBDBD"/>
<path d="M2594.26 -5H2592.56L2206.5 900.16H2208.2L2594.26 -5Z" fill="#BDBDBD"/>
<path d="M2600.04 -5H2598.34L2212.29 900.16H2213.99L2600.04 -5Z" fill="#BDBDBD"/>
<path d="M2605.83 -5H2604.13L2218.07 900.16H2219.77L2605.83 -5Z" fill="#BDBDBD"/>
<path d="M2611.61 -5H2609.91L2223.86 900.16H2225.56L2611.61 -5Z" fill="#BDBDBD"/>
<path d="M2617.4 -5H2615.7L2229.64 900.16H2231.34L2617.4 -5Z" fill="#BDBDBD"/>
<path d="M2623.18 -5H2621.48L2235.43 900.16H2237.13L2623.18 -5Z" fill="#BDBDBD"/>
<path d="M2628.97 -5H2627.27L2241.21 900.16H2242.91L2628.97 -5Z" fill="#BDBDBD"/>
<path d="M2634.75 -5H2633.05L2247 900.16H2248.7L2634.75 -5Z" fill="#BDBDBD"/>
<path d="M2640.54 -5H2638.84L2252.78 900.16H2254.48L2640.54 -5Z" fill="#BDBDBD"/>
<path d="M2507.48 -5H2505.78L2119.73 900.16H2121.43L2507.48 -5Z" fill="#BDBDBD"/>
<path d="M2513.27 -5H2511.57L2125.51 900.16H2127.22L2513.27 -5Z" fill="#BDBDBD"/>
<path d="M2519.05 -5H2517.35L2131.3 900.16H2133L2519.05 -5Z" fill="#BDBDBD"/>
<path d="M2524.84 -5H2523.14L2137.08 900.16H2138.79L2524.84 -5Z" fill="#BDBDBD"/>
<path d="M2530.62 -5H2528.92L2142.87 900.16H2144.57L2530.62 -5Z" fill="#BDBDBD"/>
<path d="M2536.41 -5H2534.71L2148.65 900.16H2150.35L2536.41 -5Z" fill="#BDBDBD"/>
<path d="M2542.19 -5H2540.49L2154.44 900.16H2156.14L2542.19 -5Z" fill="#BDBDBD"/>
<path d="M2547.98 -5H2546.28L2160.22 900.16H2161.92L2547.98 -5Z" fill="#BDBDBD"/>
<path d="M2553.76 -5H2552.06L2166.01 900.16H2167.71L2553.76 -5Z" fill="#BDBDBD"/>
<path d="M2559.55 -5H2557.85L2171.79 900.16H2173.49L2559.55 -5Z" fill="#BDBDBD"/>
<path d="M2565.33 -5H2563.63L2177.58 900.16H2179.28L2565.33 -5Z" fill="#BDBDBD"/>
<path d="M2571.12 -5H2569.42L2183.36 900.16H2185.06L2571.12 -5Z" fill="#BDBDBD"/>
<path d="M2576.9 -5H2575.2L2189.15 900.16H2190.85L2576.9 -5Z" fill="#BDBDBD"/>
</g>
</g>
<defs>
<clipPath id="clip0_1509_51">
<rect width="2169" height="896" fill="white"/>
</clipPath>
</defs>
</svg>
