<svg width="2169" height="896" viewBox="0 0 2169 896" fill="none" xmlns="http://www.w3.org/2000/svg">
<g clip-path="url(#clip0_1509_2)">
<rect width="2169" height="896" fill="#E48717"/>
<g opacity="0.5">
<path d="M2556 899.5L726.003 899.5L1110.5 -0.000126369L2556 0L2556 899.5Z" fill="#FF9B01"/>
<path d="M1206.05 -9H1135.15L749.093 896.16H820L1206.05 -9Z" fill="#E07F09" fill-opacity="0.9"/>
<path d="M1199 -9H1206.05L820 896.16H812.946L1199 -9Z" fill="#E07F09" fill-opacity="0.9"/>
<path d="M1136.85 -9H1135.15L749.093 896.16H750.794L1136.85 -9Z" fill="#C8500D" fill-opacity="0.6"/>
<path d="M1142.63 -9H1140.93L754.878 896.16H756.579L1142.63 -9Z" fill="#C8500D" fill-opacity="0.6"/>
<path d="M1148.42 -9H1146.72L760.662 896.16H762.364L1148.42 -9Z" fill="#C8500D" fill-opacity="0.6"/>
<path d="M1154.2 -9H1152.5L766.447 896.16H768.149L1154.2 -9Z" fill="#C8500D" fill-opacity="0.6"/>
<path d="M1159.99 -9H1158.29L772.232 896.16H773.934L1159.99 -9Z" fill="#C8500D" fill-opacity="0.6"/>
<path d="M1165.77 -9H1164.07L778.017 896.16H779.718L1165.77 -9Z" fill="#C8500D" fill-opacity="0.6"/>
<path d="M1171.56 -9H1169.86L783.802 896.16H785.503L1171.56 -9Z" fill="#C8500D" fill-opacity="0.6"/>
<path d="M1865.05 -9H1496.05L1110 896.16H1479L1865.05 -9Z" fill="#E07F09" fill-opacity="0.9"/>
<path d="M1459.05 -9H1205.5L819.445 896.16H1073L1459.05 -9Z" fill="#E07F09" fill-opacity="0.9"/>
<path d="M1982.01 -9H1878.55L1492.5 896.16H1595.96L1982.01 -9Z" fill="#E07F09" fill-opacity="0.9"/>
<path d="M1653.99 896.16H1652.29L1805 538.114V542.103L1653.99 896.16Z" fill="#C8500D" fill-opacity="0.6"/>
<path d="M1659.78 896.16H1658.08L1805 551.678V555.667L1659.78 896.16Z" fill="#C8500D" fill-opacity="0.6"/>
<path d="M1665.7 896.16H1664L1816.71 538.114V542.103L1665.7 896.16Z" fill="#C8500D" fill-opacity="0.6"/>
<path d="M1671.49 896.16H1669.78L1816.71 551.678V555.667L1671.49 896.16Z" fill="#C8500D" fill-opacity="0.6"/>
<path d="M460.786 -9H465.618L-82.5439 1276H-87.3757L460.786 -9Z" fill="#D36611"/>
<path d="M444.358 -9H449.19L-98.9719 1276H-103.804L444.358 -9Z" fill="#D36611"/>
<path d="M427.93 -9H432.762L-115.4 1276H-120.232L427.93 -9Z" fill="#D36611"/>
<path d="M411.502 -9H416.334L-131.828 1276H-136.66L411.502 -9Z" fill="#D36611"/>
<path d="M395.074 -9H399.906L-148.256 1276H-153.088L395.074 -9Z" fill="#D36611"/>
<path d="M378.646 -9H383.478L-164.684 1276H-169.515L378.646 -9Z" fill="#D36611"/>
<path d="M362.218 -9H367.05L-181.112 1276H-185.943L362.218 -9Z" fill="#D36611"/>
<path d="M345.79 -9H350.622L-197.54 1276H-202.371L345.79 -9Z" fill="#D36611"/>
<path d="M329.363 -9H334.194L-213.968 1276H-218.799L329.363 -9Z" fill="#D36611"/>
<path d="M312.935 -9H317.766L-230.395 1276H-235.227L312.935 -9Z" fill="#D36611"/>
<path d="M296.507 -9H301.338L-246.823 1276H-251.655L296.507 -9Z" fill="#D36611"/>
<path d="M280.079 -9H284.91L-263.251 1276H-268.083L280.079 -9Z" fill="#D36611"/>
<path d="M263.651 -9H268.482L-279.679 1276H-284.511L263.651 -9Z" fill="#D36611"/>
<path d="M247.223 -9H252.055L-296.107 1276H-300.939L247.223 -9Z" fill="#D36611"/>
<path d="M230.795 -9H235.627L-312.535 1276H-317.367L230.795 -9Z" fill="#D36611"/>
<path d="M214.367 -9H219.199L-328.963 1276H-333.795L214.367 -9Z" fill="#D36611"/>
<path d="M197.939 -9H202.771L-345.391 1276H-350.223L197.939 -9Z" fill="#D36611"/>
<path d="M181.511 -9H186.343L-361.819 1276H-366.651L181.511 -9Z" fill="#D36611"/>
<path d="M165.083 -9H169.915L-378.247 1276H-383.079L165.083 -9Z" fill="#D36611"/>
<path d="M148.655 -9H153.487L-394.675 1276H-399.507L148.655 -9Z" fill="#D36611"/>
<path d="M132.227 -9H137.059L-411.103 1276H-415.935L132.227 -9Z" fill="#D36611"/>
<path d="M115.799 -9H120.631L-427.531 1276H-432.362L115.799 -9Z" fill="#D36611"/>
<path d="M99.3713 -9H104.203L-443.959 1276H-448.79L99.3713 -9Z" fill="#D36611"/>
<path d="M82.9434 -9H87.7751L-460.387 1276H-465.218L82.9434 -9Z" fill="#D36611"/>
<path d="M66.5155 -9H71.3472L-476.815 1276H-481.646L66.5155 -9Z" fill="#D36611"/>
<path d="M50.0875 -9H54.9192L-493.243 1276H-498.074L50.0875 -9Z" fill="#D36611"/>
<path d="M33.6596 -9H38.4913L-509.67 1276H-514.502L33.6596 -9Z" fill="#D36611"/>
<path d="M17.2316 -9H22.0634L-526.098 1276H-530.93L17.2316 -9Z" fill="#D36611"/>
<path d="M0.803695 -9H5.63545L-542.526 1276H-547.358L0.803695 -9Z" fill="#D36611"/>
<path d="M-15.6243 -9H-10.7925L-558.954 1276H-563.786L-15.6243 -9Z" fill="#D36611"/>
<path d="M659.282 354H657.58L271.526 1259.16H273.227L659.282 354Z" fill="#D36611"/>
<path d="M665.066 354H663.365L277.311 1259.16H279.012L665.066 354Z" fill="#D36611"/>
<path d="M670.851 354H669.15L283.096 1259.16H284.797L670.851 354Z" fill="#D36611"/>
<path d="M676.636 354H674.935L288.88 1259.16H290.582L676.636 354Z" fill="#D36611"/>
<path d="M682.421 354H680.72L294.665 1259.16H296.367L682.421 354Z" fill="#D36611"/>
<path d="M688.206 354H686.505L300.45 1259.16H302.152L688.206 354Z" fill="#D36611"/>
<path d="M693.991 354H692.289L306.235 1259.16H307.936L693.991 354Z" fill="#D36611"/>
<path d="M699.776 354H698.074L312.02 1259.16H313.721L699.776 354Z" fill="#D36611"/>
<path d="M705.561 354H703.859L317.805 1259.16H319.506L705.561 354Z" fill="#D36611"/>
<path d="M711.345 354H709.644L323.59 1259.16H325.291L711.345 354Z" fill="#D36611"/>
<path d="M717.13 354H715.429L329.374 1259.16H331.076L717.13 354Z" fill="#D36611"/>
<path d="M722.915 354H721.214L335.159 1259.16H336.861L722.915 354Z" fill="#D36611"/>
<path d="M728.7 354H726.999L340.944 1259.16H342.646L728.7 354Z" fill="#D36611"/>
<path d="M595.648 354H593.947L207.892 1259.16H209.594L595.648 354Z" fill="#D36611"/>
<path d="M601.433 354H599.732L213.677 1259.16H215.379L601.433 354Z" fill="#D36611"/>
<path d="M607.218 354H605.516L219.462 1259.16H221.164L607.218 354Z" fill="#D36611"/>
<path d="M613.003 354H611.301L225.247 1259.16H226.948L613.003 354Z" fill="#D36611"/>
<path d="M618.788 354H617.086L231.032 1259.16H232.733L618.788 354Z" fill="#D36611"/>
<path d="M624.572 354H622.871L236.817 1259.16H238.518L624.572 354Z" fill="#D36611"/>
<path d="M630.357 354H628.656L242.602 1259.16H244.303L630.357 354Z" fill="#D36611"/>
<path d="M636.142 354H634.441L248.386 1259.16H250.088L636.142 354Z" fill="#D36611"/>
<path d="M641.927 354H640.226L254.171 1259.16H255.873L641.927 354Z" fill="#D36611"/>
<path d="M647.712 354H646.01L259.956 1259.16H261.658L647.712 354Z" fill="#D36611"/>
<path d="M653.497 354H651.795L265.741 1259.16H267.442L653.497 354Z" fill="#D36611"/>
<path d="M659.282 354H657.58L271.526 1259.16H273.227L659.282 354Z" fill="#D36611"/>
<path d="M665.066 354H663.365L277.311 1259.16H279.012L665.066 354Z" fill="#D36611"/>
<path d="M798.118 354H796.417L410.363 1259.16H412.064L798.118 354Z" fill="#D36611"/>
<path d="M803.903 354H802.202L416.147 1259.16H417.849L803.903 354Z" fill="#D36611"/>
<path d="M809.688 354H807.987L421.932 1259.16H423.634L809.688 354Z" fill="#D36611"/>
<path d="M815.473 354H813.771L427.717 1259.16H429.419L815.473 354Z" fill="#D36611"/>
<path d="M821.258 354H819.556L433.502 1259.16H435.203L821.258 354Z" fill="#D36611"/>
<path d="M827.043 354H825.341L439.287 1259.16H440.988L827.043 354Z" fill="#D36611"/>
<path d="M832.827 354H831.126L445.072 1259.16H446.773L832.827 354Z" fill="#D36611"/>
<path d="M838.612 354H836.911L450.857 1259.16H452.558L838.612 354Z" fill="#D36611"/>
<path d="M844.397 354H842.696L456.641 1259.16H458.343L844.397 354Z" fill="#D36611"/>
<path d="M850.182 354H848.481L462.426 1259.16H464.128L850.182 354Z" fill="#D36611"/>
<path d="M855.967 354H854.265L468.211 1259.16H469.913L855.967 354Z" fill="#D36611"/>
<path d="M861.752 354H860.05L473.996 1259.16H475.697L861.752 354Z" fill="#D36611"/>
<path d="M867.537 354H865.835L479.781 1259.16H481.482L867.537 354Z" fill="#D36611"/>
<path d="M734.485 354H732.783L346.729 1259.16H348.43L734.485 354Z" fill="#D36611"/>
<path d="M740.27 354H738.568L352.514 1259.16H354.215L740.27 354Z" fill="#D36611"/>
<path d="M746.055 354H744.353L358.299 1259.16H360L746.055 354Z" fill="#D36611"/>
<path d="M751.839 354H750.138L364.084 1259.16H365.785L751.839 354Z" fill="#D36611"/>
<path d="M757.624 354H755.923L369.868 1259.16H371.57L757.624 354Z" fill="#D36611"/>
<path d="M763.409 354H761.708L375.653 1259.16H377.355L763.409 354Z" fill="#D36611"/>
<path d="M769.194 354H767.493L381.438 1259.16H383.14L769.194 354Z" fill="#D36611"/>
<path d="M774.979 354H773.277L387.223 1259.16H388.925L774.979 354Z" fill="#D36611"/>
<path d="M780.764 354H779.062L393.008 1259.16H394.709L780.764 354Z" fill="#D36611"/>
<path d="M786.549 354H784.847L398.793 1259.16H400.494L786.549 354Z" fill="#D36611"/>
<path d="M792.333 354H790.632L404.578 1259.16H406.279L792.333 354Z" fill="#D36611"/>
<path d="M798.118 354H796.417L410.363 1259.16H412.064L798.118 354Z" fill="#D36611"/>
<path d="M803.903 354H802.202L416.147 1259.16H417.849L803.903 354Z" fill="#D36611"/>
<g opacity="0.6">
<path d="M1955.99 -561H1952.65L1193 1220.1H1196.35L1955.99 -561Z" fill="#C8500D"/>
<path d="M1967.38 -561H1964.03L1204.38 1220.1H1207.73L1967.38 -561Z" fill="#C8500D"/>
<path d="M1978.76 -561H1975.41L1215.77 1220.1H1219.11L1978.76 -561Z" fill="#C8500D"/>
<path d="M1990.14 -561H1986.79L1227.15 1220.1H1230.5L1990.14 -561Z" fill="#C8500D"/>
<path d="M2001.53 -561H1998.18L1238.53 1220.1H1241.88L2001.53 -561Z" fill="#C8500D"/>
<path d="M2012.91 -561H2009.56L1249.91 1220.1H1253.26L2012.91 -561Z" fill="#C8500D"/>
<path d="M2024.29 -561H2020.94L1261.3 1220.1H1264.65L2024.29 -561Z" fill="#C8500D"/>
</g>
<g opacity="0.6">
<path d="M2034.7 -561H2031.35L1271.71 1220.1H1275.06L2034.7 -561Z" fill="#C8500D"/>
<path d="M2046.08 -561H2042.74L1283.09 1220.1H1286.44L2046.08 -561Z" fill="#C8500D"/>
<path d="M2057.47 -561H2054.12L1294.47 1220.1H1297.82L2057.47 -561Z" fill="#C8500D"/>
<path d="M2068.85 -561H2065.5L1305.86 1220.1H1309.2L2068.85 -561Z" fill="#C8500D"/>
<path d="M2080.23 -561H2076.89L1317.24 1220.1H1320.59L2080.23 -561Z" fill="#C8500D"/>
<path d="M2091.62 -561H2088.27L1328.62 1220.1H1331.97L2091.62 -561Z" fill="#C8500D"/>
<path d="M2103 -561H2099.65L1340.01 1220.1H1343.35L2103 -561Z" fill="#C8500D"/>
</g>
<path d="M2562.01 -9H1993.05L1607 896.16H2175.96L2562.01 -9Z" fill="#E07F09" fill-opacity="0.9"/>
<path opacity="0.6" fill-rule="evenodd" clip-rule="evenodd" d="M1789.89 583.169H1788.19L2143.11 -249H2144.82L1789.89 583.169ZM1795.68 583.169H1793.98L2148.9 -249H2150.6L1795.68 583.169ZM1801.46 583.169H1799.76L2154.68 -249H2156.39L1801.46 583.169ZM1807.25 583.169H1805.55L2160.47 -249H2162.17L1807.25 583.169ZM1813.03 583.169H1811.33L2166.25 -249H2167.96L1813.03 583.169ZM1818.82 583.169H1817.12L2172.04 -249H2173.74L1818.82 583.169ZM1824.6 583.169H1822.9L2177.82 -249H2179.52L1824.6 583.169ZM1830.39 583.169H1828.69L2183.61 -249H2185.31L1830.39 583.169ZM1836.17 583.169H1834.47L2189.39 -249H2191.09L1836.17 583.169ZM1841.96 583.169H1840.25L2195.18 -249H2196.88L1841.96 583.169ZM1847.74 583.169H1846.04L2200.96 -249H2202.66L1847.74 583.169ZM1853.53 583.169H1851.82L2206.75 -249H2208.45L1853.53 583.169ZM1859.31 583.169H1857.61L2212.53 -249H2214.23L1859.31 583.169ZM1865.1 583.169H1863.39L2218.32 -249H2220.02L1865.1 583.169ZM1870.88 583.169H1869.18L2224.1 -249H2225.8L1870.88 583.169ZM1876.67 583.169H1874.96L2229.89 -249H2231.59L1876.67 583.169ZM1882.45 583.169H1880.75L2235.67 -249H2237.37L1882.45 583.169ZM1888.24 583.169H1886.53L2241.46 -249H2243.16L1888.24 583.169ZM1894.02 583.169H1892.32L2247.24 -249H2248.94L1894.02 583.169ZM1899.8 583.169H1898.1L2253.03 -249H2254.73L1899.8 583.169ZM1905.59 583.169H1903.89L2258.81 -249H2260.51L1905.59 583.169ZM1911.37 583.169H1909.67L2264.6 -249H2266.3L1911.37 583.169ZM1917.16 583.169H1915.46L2270.38 -249H2272.08L1917.16 583.169ZM1922.94 583.169H1921.24L2276.17 -249H2277.87L1922.94 583.169ZM1928.73 583.169H1927.03L2281.95 -249H2283.65L1928.73 583.169ZM1934.51 583.169H1932.81L2287.74 -249H2289.44L1934.51 583.169ZM1940.3 583.169H1938.6L2293.52 -249H2295.22L1940.3 583.169ZM1946.08 583.169H1944.38L2299.31 -249H2301.01L1946.08 583.169ZM1951.87 583.169H1950.17L2305.09 -249H2306.79L1951.87 583.169ZM1957.65 583.169H1955.95L2310.88 -249H2312.58L1957.65 583.169ZM1963.44 583.169H1961.74L2316.66 -249H2318.36L1963.44 583.169ZM1969.22 583.169H1967.52L2322.44 -249H2324.15L1969.22 583.169ZM1975.01 583.169H1973.31L2328.23 -249H2329.93L1975.01 583.169ZM1980.79 583.169H1979.09L2334.01 -249H2335.72L1980.79 583.169ZM1986.58 583.169H1984.88L2339.8 -249H2341.5L1986.58 583.169ZM1992.36 583.169H1990.66L2345.58 -249H2347.29L1992.36 583.169ZM1998.15 583.169H1996.45L2351.37 -249H2353.07L1998.15 583.169ZM2003.93 583.169H2002.23L2357.15 -249H2358.86L2003.93 583.169ZM2009.72 583.169H2008.02L2362.94 -249H2364.64L2009.72 583.169ZM2015.5 583.169H2013.8L2368.72 -249H2370.43L2015.5 583.169ZM2021.29 583.169H2019.59L2374.51 -249H2376.21L2021.29 583.169ZM2027.07 583.169H2025.37L2380.29 -249H2381.99L2027.07 583.169ZM2032.86 583.169H2031.16L2386.08 -249H2387.78L2032.86 583.169Z" fill="#C8500D"/>
</g>
</g>
<defs>
<clipPath id="clip0_1509_2">
<rect width="2169" height="896" fill="white"/>
</clipPath>
</defs>
</svg>
