<svg width="24" height="24" viewBox="0 0 24 24" fill="none" xmlns="http://www.w3.org/2000/svg">
<g clip-path="url(#clip0_1564_7)">
<path fill-rule="evenodd" clip-rule="evenodd" d="M12 0C18.6 0 24 5.4 24 12C24 18.6 18.6 24 12 24C5.4 24 0 18.6 0 12C0 5.4 5.4 0 12 0ZM14.6 16H9.4C9.9 18.5 10.8 20.1 12 21.7C13.2 20 14 18.3 14.6 16ZM7.4 16H2.8C4 18.8 6.5 21 9.6 21.7C8.5 20 7.8 18.1 7.4 16ZM21.2 16H16.6C16.2 18 15.5 19.9 14.4 21.7C17.4 20.9 19.9 18.8 21.2 16ZM7.2 10H2.2C1.9 11.3 1.9 12.7 2.2 14H7.1C7 12.7 7 11.3 7.2 10ZM14.8 10H9.2C9 11.3 9 12.7 9.1 14H14.9C15 12.7 15 11.3 14.8 10ZM21.8 10H16.8C16.9 11.3 17 12.7 16.8 14H21.7C22.1 12.7 22.1 11.4 21.8 10ZM9.6 2.3C6.6 3 4.1 5.2 2.8 8H7.5C7.9 6 8.7 4 9.6 2.3ZM12 2.2C10.9 4 10.1 5.7 9.5 8H14.4C13.9 5.8 13.1 4.1 12 2.2ZM14.4 2.3C15.4 4.1 16.1 6.1 16.5 8H21.2C19.9 5.2 17.4 3 14.4 2.3Z" fill="#111111"/>
</g>
<defs>
<clipPath id="clip0_1564_7">
<rect width="24" height="24" fill="white"/>
</clipPath>
</defs>
</svg>
