<svg width="1000" height="92" viewBox="0 0 1000 92" fill="none" xmlns="http://www.w3.org/2000/svg">
<path fill-rule="evenodd" clip-rule="evenodd" d="M607.901 12.2279C607.901 12.2725 607.938 12.3099 607.983 12.3099L607.977 12.3009H613.449C613.547 12.3009 613.625 12.3811 613.625 12.4773V13.5637C613.625 13.6617 613.545 13.74 613.449 13.74H607.979C607.935 13.74 607.897 13.7774 607.897 13.822V16.2335C607.897 16.4348 607.742 16.5879 607.543 16.5879L593.358 16.5701C593.285 16.5701 593.222 16.6218 593.206 16.693L592.603 19.4519C592.574 19.5605 592.528 19.6656 592.466 19.7618L591.967 20.5366C591.928 20.5971 591.915 20.6701 591.932 20.7396L593.141 25.853C593.169 25.9884 593.085 26.1219 592.95 26.1522L587.822 27.2939C587.68 27.3259 587.555 27.2458 587.523 27.1033L587.037 24.8378C587.026 24.7826 586.95 24.7755 586.927 24.8271L585.185 28.9004C585.064 29.1319 584.881 29.3261 584.658 29.4632C583.814 29.9797 582.192 30.5621 581.208 30.5692C580.96 30.5692 580.716 30.498 580.501 30.3769L576.95 28.3732C576.851 28.318 576.726 28.3518 576.671 28.4516L575.335 29.896C575.277 29.9993 575.278 30.1275 575.339 30.2291L576.231 31.3351C576.297 31.4437 576.3 31.5809 576.24 31.6931L571.881 39.8913C571.826 39.9964 571.719 40.0658 571.6 40.0765L570.341 40.1816C570.245 40.1887 570.181 40.2813 570.206 40.374L570.482 44.6253C570.517 44.7571 570.581 44.8782 570.67 44.9815C570.76 45.0848 570.868 45.1828 570.979 45.2594C571.133 45.3662 571.256 45.5123 571.351 45.6762C572.18 47.1259 575.677 53.2474 576.238 54.2448C576.343 54.4317 576.498 54.6994 576.683 55.0205C577.619 56.643 579.341 59.6279 579.48 60.4233C579.707 61.7128 579.819 62.9328 579.48 64.0175L572.246 81.096C572.205 81.1993 572.143 81.2937 572.063 81.3703L569.714 83.6875C569.616 83.7836 569.59 83.9332 569.648 84.0579L570.854 85.8425C571.032 86.0848 571.283 86.2629 571.571 86.3519L576.062 87.7073C576.092 87.718 576.121 87.7322 576.147 87.7483C576.154 87.7518 576.208 87.7803 576.263 87.8569C576.272 87.8676 576.277 87.8783 576.284 87.889C576.288 87.8945 576.291 87.9001 576.294 87.9058C576.302 87.9183 576.309 87.9313 576.315 87.946C576.316 87.9477 576.318 87.9495 576.318 87.9513V87.9531C576.347 88.019 576.372 88.1009 576.384 88.2095C576.388 88.2345 576.391 88.2612 576.391 88.2879V88.3004V88.3894C576.389 88.4019 576.389 88.4162 576.389 88.4286L576.384 88.491C576.327 89.0342 575.946 89.4563 575.617 89.8C575.442 89.9817 575.172 90.1456 574.755 90.2934C574.728 90.3041 574.702 90.313 574.675 90.3219C574.075 90.5249 573.193 90.7012 571.904 90.8651C571.821 90.8758 571.693 90.8883 571.618 90.8918C571.222 90.9079 570.553 90.9168 570.541 90.9168H570.533L560.863 90.8633C560.737 90.8633 560.636 90.7565 560.643 90.63L561.212 86.5051C561.235 86.0826 561.384 85.7779 561.526 85.4889C561.666 85.2029 561.798 84.9323 561.793 84.578L563.358 78.9338C563.386 78.7379 563.433 78.542 563.493 78.3532L565.222 70.2262L569.136 63.3442C569.219 63.1964 569.171 63.0076 569.025 62.9186C568.874 62.8265 568.661 62.7199 568.431 62.6055C567.981 62.3809 567.47 62.1263 567.255 61.8927C566.082 60.6103 563.395 56.7187 562.854 55.9279C562.599 55.5563 562.238 54.982 561.86 54.3789C561.268 53.4356 560.632 52.4218 560.283 52.0025C560.114 51.7994 559.84 51.7193 559.589 51.8012L559.176 51.9348C559.008 51.99 558.871 52.1111 558.795 52.2696L552.264 66.6891C552.02 67.1984 551.534 67.9678 551.176 68.4042L537.471 84.5085L537.573 85.2512L537.183 90.1847C537.169 90.7974 536.675 91.3691 536.23 91.3282L529.042 91.3175L528.688 90.6104L528.57 90.3415C528.524 90.2364 528.528 90.1171 528.581 90.0155L530.949 85.8728C531.097 85.5878 531.225 84.1737 531.218 83.8531L530.716 82.9572C530.707 82.5957 530.844 82.0489 531.015 81.7318L538.084 66.8013C538.721 65.6169 540.024 63.9195 540.997 62.9898L543.119 61.3673C543.178 61.3085 543.222 61.2372 543.245 61.1571L543.847 57.7018C543.874 57.5487 543.893 57.3955 543.908 57.2423L544.67 48.5348C544.698 48.2159 544.965 47.9684 545.286 47.9684L546.561 47.9613C546.667 47.9613 546.762 47.8918 546.792 47.7885L549.064 41.9627C549.073 41.9324 549.084 41.9021 549.096 41.8736C549.119 41.8219 549.158 41.7756 549.201 41.7382L550.852 40.2831C550.894 40.2101 550.925 40.1299 550.941 40.048L552.185 36.3701C552.205 36.2882 552.176 36.2009 552.111 36.1457L549.728 34.655C549.639 34.5517 549.605 34.3664 549.662 34.2436L553.076 24.5671C553.133 24.4442 553.277 24.3355 553.412 24.3355L555.607 24.3284C555.716 24.3338 555.818 24.2732 555.867 24.177C555.867 24.177 556.256 23.3346 558.618 18.28C561.024 13.1327 564.287 11.3427 565.753 11.284C566.534 11.2519 568.119 11.2109 568.119 11.2109C568.213 11.2109 568.295 11.1486 568.32 11.0578L569.064 9.8235L567.717 9.24109C567.617 9.16273 567.556 9.0434 567.556 8.91516L567.362 5.18029C567.362 5.11082 567.505 4.3521 567.537 4.28976L567.904 3.48116C568.203 2.9041 568.586 2.37512 569.05 1.92273C570.095 0.903971 572.054 -0.373046 575.043 0.102495C581.188 1.08208 582.463 5.46347 582.619 6.1189C582.632 6.17055 582.669 6.21152 582.719 6.23111L583.581 6.55348C583.665 6.58376 583.713 6.67281 583.693 6.76008L582.765 10.5235C582.739 10.6303 582.639 10.7016 582.529 10.6927L581.256 10.5715C581.143 10.5502 581.04 10.6392 581.042 10.7532L581.092 11.4264C581.094 11.5244 581.174 11.6028 581.272 11.6028H606.167C606.197 11.6028 606.224 11.5885 606.241 11.5636C606.394 11.3421 606.592 11.053 606.761 10.8068C606.942 10.5442 607.088 10.3303 607.11 10.299C607.194 10.1779 607.322 10.0996 607.466 10.0996C607.716 10.0996 607.915 10.3293 607.915 10.6143L607.913 10.8119C607.91 11.2027 607.904 11.9758 607.901 12.2279ZM686.92 81.4967H696.392L696.397 81.4917C700.402 81.4917 704.024 79.1014 705.592 75.4151L721.622 37.7655H737.929C740.446 37.7655 743.028 36.2123 743.931 34.0641L747.719 25.0829H690.405L684.953 37.7655H705.587L686.92 81.4967ZM879.007 65.8136H884.051L894.774 81.4967H912.029L893.165 54.1597L934.969 25.0879H911.353C910.34 25.0879 909.346 25.4006 908.514 25.9754L871.204 51.719L882.573 25.0879H866.866L842.736 81.4967H858.483L865.292 65.7934L879.007 65.8136ZM141.016 69.4173C137.874 76.7899 130.636 81.5755 122.626 81.5755H77.9774C70.8101 81.5755 65.9679 74.2533 68.7874 67.6573L81.7604 37.2996C84.9027 29.9422 92.1407 25.1667 100.14 25.1667H144.789C151.961 25.1667 156.799 32.4939 153.979 39.0848L141.016 69.4173ZM126.409 65.6906L138.298 37.8493H90.2947L96.4331 40.8952L84.5446 68.7214H121.814C123.816 68.7214 125.622 67.5262 126.409 65.6856V65.6906ZM166.619 68.6962L185.039 25.1667L185.034 25.1717H175.426C171.426 25.1717 167.81 27.5569 166.236 31.2331L150.655 67.6372C147.836 74.2281 152.673 81.5604 159.845 81.5604H200.751C208.771 81.5604 216.019 76.7697 219.151 69.387L237.93 25.1717L228.422 25.1616C224.407 25.1566 220.781 27.5519 219.212 31.2432L204.575 65.6503C203.798 67.501 201.982 68.7062 199.969 68.7062L166.619 68.6962ZM331.54 81.5755H322.067L340.735 37.8443H320.1L325.553 25.1616H382.867L379.079 34.1428C378.176 36.2911 375.593 37.8443 373.076 37.8443H356.769L340.74 75.4939C339.171 79.1801 335.55 81.5704 331.545 81.5704L331.54 81.5755ZM512.553 81.5755H512.566L512.556 81.5805L512.553 81.5755ZM505.701 68.7264L512.553 81.5755H495.729L488.784 68.7214H458.989L456.094 75.504C454.525 79.1852 450.904 81.5755 446.899 81.5755H437.29L461.375 25.1667H514.951C522.119 25.1667 526.961 32.4888 524.146 39.0848L513.761 63.4063C512.384 66.6337 509.211 68.7264 505.701 68.7264ZM508.917 37.8494L508.914 37.8443L464.749 37.8846L470.863 40.8397L464.351 56.1749H497.827C499.835 56.1749 501.646 54.9747 502.427 53.129L508.917 37.8494ZM13.7635 37.2442C16.921 29.9119 24.1439 25.1667 32.1233 25.1667H79.5663L75.4505 34.8135C74.6637 36.6542 72.8579 37.8493 70.8555 37.8493H22.0053L28.4514 40.8952L16.5831 68.7214H60.9745L56.783 78.5397C55.9962 80.3803 54.1904 81.5755 52.188 81.5755H10.0058C2.83842 81.5755 -1.99869 74.2584 0.810768 67.6674L13.7635 37.2442ZM234.248 81.5704C238.253 81.5704 241.874 79.1801 243.443 75.4989H243.448L256.91 43.9813L275.421 78.9179C276.284 80.5518 277.983 81.5755 279.835 81.5755H290.048C292.051 81.5755 293.857 80.3803 294.643 78.5397L317.457 25.1616L307.702 25.1717C303.707 25.1767 300.101 27.5569 298.527 31.2281L284.404 64.1677L265.187 27.8141C264.32 26.1752 262.615 25.1515 260.764 25.1515L248.729 25.1616L224.644 81.5704H234.248ZM433.502 48.5955H397.222L400.54 40.8296L394.286 37.8443H442.798C444.801 37.8443 446.612 36.6491 447.393 34.8085L451.509 25.1667H397.62C393.615 25.1667 389.999 27.5569 388.425 31.2382L369.904 74.6215C368.497 77.9195 370.913 81.5805 374.499 81.5805H424.121C426.128 81.5805 427.939 80.3803 428.721 78.5347L432.887 68.7264H388.571L392.5 59.5838H425.493C427.49 59.5838 429.296 58.3937 430.088 56.5581L433.502 48.5955ZM853.918 25.0879H837.768L813.683 81.4816H825.44C827.967 81.4816 830.666 79.8074 831.574 77.6592L845.616 44.6086L853.918 25.0879ZM806.672 81.4967H806.659L799.807 68.6477C803.318 68.6477 806.491 66.5549 807.868 63.3275L818.253 39.0061C821.068 32.4101 816.225 25.0879 809.058 25.0879H755.482L731.397 81.4967H741.005C745.01 81.4967 748.632 79.1065 750.201 75.4252L753.096 68.6426H782.89L789.836 81.4967H806.659L806.662 81.5018L806.672 81.4967ZM803.02 37.7655L758.851 37.8059L764.964 40.761L758.452 56.0961H791.929C793.936 56.0961 795.747 54.8959 796.529 53.0503L803.02 37.7655ZM945.707 48.5168H981.988H981.993L978.579 56.4794C977.787 58.315 975.981 59.5051 973.984 59.5051H940.991L937.062 68.6477H981.378L977.212 78.4559C976.43 80.3016 974.619 81.5018 972.612 81.5018H922.99C919.403 81.5018 916.987 77.8407 918.395 74.5427L936.916 31.1595C938.49 27.4782 942.106 25.0879 946.111 25.0879H1000L995.884 34.7298C995.097 36.5704 993.287 37.7655 991.284 37.7655H942.772L949.026 40.7509L945.707 48.5168ZM651.809 59.6211L647.956 68.6426H602.48C600.482 68.6426 598.677 69.8327 597.89 71.6683L593.663 81.4967H645.015C653.02 81.4967 660.258 76.7212 663.4 69.3587L667.163 60.5439C669.977 53.9529 665.14 46.6257 657.968 46.6257H624.335L626.806 40.8164L620.522 37.7706H673.579C675.581 37.7706 677.397 36.5754 678.179 34.7298L682.274 25.0879H630.922C622.897 25.0879 615.649 29.8836 612.517 37.2713L610.424 42.2082L608.931 45.7281C606.131 52.3191 610.969 59.6261 618.131 59.6261H621.803L651.809 59.6211Z" fill="#1E202F"/>
</svg>
