<svg width="140" height="136" viewBox="0 0 140 136" fill="none" xmlns="http://www.w3.org/2000/svg">
<path fill-rule="evenodd" clip-rule="evenodd" d="M130.046 68C130.046 99.8405 103.403 126.081 70 126.081C36.5969 126.081 9.95392 99.8405 9.95392 68C9.95392 36.1595 36.5969 9.91905 70 9.91905C103.403 9.91905 130.046 36.1595 130.046 68ZM140 68C140 105.555 108.66 136 70 136C31.3401 136 0 105.555 0 68C0 30.4446 31.3401 0 70 0C108.66 0 140 30.4446 140 68ZM108.637 70.5309C110.397 69.553 110.397 67.0219 108.637 66.044L53.5036 35.4088C51.7929 34.4582 49.6905 35.6952 49.6905 37.6523L49.6905 98.9226C49.6905 100.88 51.7929 102.117 53.5036 101.166L108.637 70.5309Z" fill="white"/>
</svg>
